# xmcd
# 
# Track frame offsets:
#     150
#     14594
#     29521
#     45505
#     62930
#     79460
#     99982
#     113552
#     125577
#     142575
#     166365
#     182613
#     205156
# 
# Disc length: 2769
# 
# Revision: 1
# Processed by: cddbd v1.5.2PL0 Copyright (c) Steve Scherf et al.
# Submitted via: fre:ac v1.0.17
# 
DISCID=ab0acf0d
DTITLE=Lindsay Lou and The Flatbellys - Release Your Shrouds
DYEAR=2012
DGENRE=Country
TTITLE0=Hat's Off
TTITLE1=My Side of the Mountain
TTITLE2=Tied Down to You
TTITLE3=Leaves and Pods
TTITLE4=Pass Me the Whiskey
TTITLE5=Querida Tierra
TTITLE6=The Leaves are Changin'
TTITLE7=Wonderful You Are
TTITLE8=Barbarossa
TTITLE9=The Power
TTITLE10=Lemon Squeezy
TTITLE11=All Day
TTITLE12=The Petroff Line
EXTD=
EXTT0=
EXTT1=
EXTT2=
EXTT3=
EXTT4=
EXTT5=
EXTT6=
EXTT7=
EXTT8=
EXTT9=
EXTT10=
EXTT11=
EXTT12=
PLAYORDER=
